<svg width="32" height="32" viewBox="0 0 32 32" fill="none" xmlns="http://www.w3.org/2000/svg">
<g clip-path="url(#clip0_16_16)">
<path d="M16 0C11.7565 0 7.68687 1.68571 4.68629 4.68629C1.68571 7.68687 0 11.7565 0 16C0 20.2435 1.68571 24.3131 4.68629 27.3137C7.68687 30.3143 11.7565 32 16 32C20.2435 32 24.3131 30.3143 27.3137 27.3137C30.3143 24.3131 32 20.2435 32 16C32 11.7565 30.3143 7.68687 27.3137 4.68629C24.3131 1.68571 20.2435 0 16 0ZM17.5 7.5V16C17.5 16.5 17.25 16.9688 16.8313 17.25L10.8312 21.25C10.1437 21.7125 9.2125 21.525 8.75 20.8312C8.2875 20.1375 8.475 19.2125 9.16875 18.75L14.5 15.2V7.5C14.5 6.66875 15.1687 6 16 6C16.8313 6 17.5 6.66875 17.5 7.5Z" fill="#77BECA"/>
</g>
<defs>
<clipPath id="clip0_16_16">
<rect width="32" height="32" fill="white" transform="matrix(-1 0 0 1 32 0)"/>
</clipPath>
</defs>
</svg>
