<svg width="44" height="44" viewBox="0 0 44 44" fill="none" xmlns="http://www.w3.org/2000/svg">
<path d="M22 42C33.046 42 42 33.046 42 22C42 10.954 33.046 2 22 2C10.954 2 2 10.954 2 22C2 33.046 10.954 42 22 42Z" stroke="#77BECA" stroke-width="4"/>
<path d="M2 18.84C5.015 17.417 7.245 17.218 8.69 18.245C10.857 19.785 11.128 26.064 16.058 23.064C20.987 20.063 13.947 18.84 15.475 14.494C17.003 10.147 22.008 13.524 22.505 8.763C22.837 5.589 19.041 4.37401 11.115 5.11901" stroke="#77BECA" stroke-width="4"/>
<path d="M34 6C28.286 10.989 26.29 14.001 28.013 15.037C30.597 16.592 31.693 14.403 34.847 15.037C38 15.671 37.317 19.946 35.659 19.946C34 19.946 25.41 18.852 25.843 23.865C26.275 28.878 31.443 29.62 31.443 32.421C31.443 34.288 30.299 37.146 28.013 40.994M4.104 30.926C4.78567 30.6261 5.47105 30.3348 6.16 30.052C10.007 28.498 12.862 28.132 14.724 28.953C18.016 30.406 16.75 33.34 17.782 34.421C18.812 35.502 21.388 35.188 21.388 37.244C21.388 38.615 20.928 40.164 20.006 41.89" stroke="#77BECA" stroke-width="4" stroke-linecap="round"/>
</svg>
